<svg xmlns="http://www.w3.org/2000/svg" viewBox="0 0 252.38 81.57"><defs><style>.cls-1{fill:#42af55;}.cls-1,.cls-2{fill-rule:evenodd;}.cls-2{fill:#828585;}</style></defs><g id="Layer_2" data-name="Layer 2"><g id="Layer_1-2" data-name="Layer 1"><g id="Logo"><path class="cls-1" d="M0,54.58C-.09,39.11.14,23.88,0,8c0-.66,0-1.37,0-2,0-1.4,1.5-3.31,2.52-4.06C5.74-.43,9.35-.65,13.18,1.39c1,.77,2.76,2.28,2.78,3.84.17,11.8,0,23.64,0,35.47V41c0,.78.05,1.57.11,2.36a1.49,1.49,0,0,0,.54,1c25.68.08,26.16,0,27.05.17,7.24.51,7.11,13.93.93,15.42C31.34,60,18,60.46,4.8,59.86,1.39,59.7.07,57.58,0,54.58Z"/><path class="cls-1" d="M56.36,55.25c-.13-14.71.09-28.88,0-44,0-.62,0-1.3,0-1.9,0-1.33,1.5-3.14,2.52-3.86C62.05,3.26,65.66,3.05,69.5,5c1,.73,2.75,2.16,2.77,3.65.17,11.22,0,22.48,0,33.73v.26c0,5.48.19,10.25,0,13-.15,1.87-2.76,3.44-3.73,4.06-3.39,2.18-8,.66-9.4-.4s-2.72-1.57-2.74-4.09Z"/><path class="cls-1" d="M98.39,55.29c-.13-14.6.09-28.66,0-43.64,0-.62,0-1.29,0-1.89,0-1.32,1.5-3.12,2.52-3.83,3.19-2.24,6.8-2.44,10.63-.51,1,.72,2.76,2.14,2.78,3.62.17,11.14,0,22.3,0,33.47v.25c0,5.44.19,10.17,0,13-.15,1.86-2.76,3.42-3.73,4-3.39,2.15-8,.65-9.4-.4s-2.72-1.56-2.74-4.06Z"/><path class="cls-1" d="M108.67,17.44c-14.93.13-29.31-.09-44.65,0-.63,0-1.32.05-1.92,0-1.35,0-3.19-1.49-3.92-2.51a9.26,9.26,0,0,1-1.81-5.5A11.09,11.09,0,0,1,57.65,4.3c.74-1,2.2-2.75,3.7-2.77,11.4-.17,22.82,0,34.24,0h.27c5.56,0,10.4-.19,13.24,0,1.9.15,3.5,2.76,4.13,3.73,2.21,3.39.67,8-.41,9.4s-1.59,2.72-4.15,2.74Z"/><path class="cls-1" d="M105.85,46.67c-12.93.13-25.4-.09-38.68,0-.55,0-1.15,0-1.67,0-1.17,0-2.77-1.5-3.4-2.52a10.86,10.86,0,0,1-.45-10.64c.63-1,1.9-2.75,3.21-2.77,9.87-.17,19.77,0,29.66,0h.23c4.82,0,9-.19,11.48,0,1.65.15,3,2.76,3.58,3.73,1.91,3.39.58,8-.36,9.4s-1.38,2.72-3.6,2.74Z"/><path class="cls-1" d="M175,60.1c-15.42,0-30.81.41-46.19,0-3.92-.11-6.07-2.72-6.58-6.63s.43-7.81,4.61-9.43q18.87-.09,37.76-.14a8.37,8.37,0,0,1,.7-.62,14.4,14.4,0,0,0-.11-3.47l-.54-.43c-11.48-.06-23,0-34.39-.11-3.08,0-7.44-2.6-7.46-6.3,0-5.43,0-10.93,0-16.37.06-3.35-.26-6.94.19-10.24.33-2.46,2.66-4.2,4.93-4.77,13.42,0,30.57.07,44.53.07,1.93.14,4.22-.17,5.78,1.36a8.47,8.47,0,0,1-5.75,14.63c-8.65,0-23.06,0-31.71,0-.43.11-.48.32-.64.62a18.41,18.41,0,0,0,0,3.15c.62.68.62.68.83.79,11.72,0,23.45-.24,35.2.1,3.17.09,6.33,5.2,6.33,8,0,7.28.06,14.61,0,21.48,0,3.47-4,8-7.49,8.3Z"/><path class="cls-1" d="M198,60.16c-4.68-.52-6.95-5.62-7-9.72,0-14.08-.24-28-.08-42.15a6.36,6.36,0,0,1,6-6.55h47.48a7.66,7.66,0,0,1,7.46,7.86c-.07,4.34-2.92,7.38-7.11,7.55H233.88c-8.57,0-17.15-.17-25.72,0a1.07,1.07,0,0,0-.91.67,7.08,7.08,0,0,0,0,3.6c.2.69.51.78,1.25.86,0,0,29.07,0,35.11,0,.8,0,1.6,0,2.4.05,6.8.85,8.6,12,3.21,15.58-.68,1-2.5,1.26-3.57,1.34-12.59-.07-25.57.21-37.55.15-1.18,0-1.32,4.07.06,4.47,5.39.75,26.05-.36,38.69.07,6.29.22,7.55,15.73-1,16.05-16.19.17-31.91.14-47.8.14Z"/><path class="cls-2" d="M.34,66.79H5.09a16.82,16.82,0,0,1,3.35.26,3.64,3.64,0,0,1,2,1.16,3.26,3.26,0,0,1,.81,2.25,3.39,3.39,0,0,1-.65,2.12,3.6,3.6,0,0,1-1.81,1.21,12.32,12.32,0,0,1-3.55.38H4V78.5H.34V66.79ZM4,68.69v3.46H5.09A2.62,2.62,0,0,0,7,71.66a1.87,1.87,0,0,0,.42-1.27,1.64,1.64,0,0,0-.33-1.06,1.52,1.52,0,0,0-.77-.53,5.65,5.65,0,0,0-1.24-.11Zm18.1,5.88h-6.4v.48a2,2,0,0,0,.45,1.56,1.7,1.7,0,0,0,1.17.39A1.55,1.55,0,0,0,19,75.52l3,.14q-.81,3-4.84,3a5.36,5.36,0,0,1-3.78-1.2,4.09,4.09,0,0,1-1.3-3.19,4.33,4.33,0,0,1,1.37-3.44,5.44,5.44,0,0,1,3.68-1.18,5.62,5.62,0,0,1,3.48,1c.92.7,1.39,2,1.39,3.85Zm-3.21-1.4a2.27,2.27,0,0,0,0-.24c0-1.11-.53-1.67-1.59-1.67s-1.58.64-1.59,1.91Zm13.53,1.07,3.34.14a4.29,4.29,0,0,1-1.7,3.1,6.31,6.31,0,0,1-4,1.2,6.3,6.3,0,0,1-4.64-1.6,6.95,6.95,0,0,1,0-8.86,6.31,6.31,0,0,1,4.7-1.61q5.16,0,5.61,4.53l-3.31.17c-.08-1.74-.85-2.6-2.29-2.6a2.2,2.2,0,0,0-1.81.84,5.52,5.52,0,0,0-.67,3.26,5.2,5.2,0,0,0,.62,3,2.21,2.21,0,0,0,1.85.81c1.32,0,2.1-.79,2.33-2.35ZM47,74.17c0,3-1.65,4.51-5,4.51s-5-1.51-5-4.51,1.65-4.5,5-4.5,5,1.5,5,4.5Zm-3.51,0a5.32,5.32,0,0,0-.32-2.24A1.17,1.17,0,0,0,42,71.35a1.2,1.2,0,0,0-1.11.55,5,5,0,0,0-.34,2.27,5.8,5.8,0,0,0,.29,2.2,1.38,1.38,0,0,0,2.3,0,5.61,5.61,0,0,0,.3-2.21Zm20.5-4.83-3,.81a2.35,2.35,0,0,0-2.34-1.44,2.1,2.1,0,0,0-1.26.32.91.91,0,0,0-.47.75.88.88,0,0,0,.55.79,13.24,13.24,0,0,0,2.3.78,15.91,15.91,0,0,1,2.51.83A3.79,3.79,0,0,1,63.7,73.3a2.53,2.53,0,0,1,.56,1.64,3.13,3.13,0,0,1-1.59,2.69,7.6,7.6,0,0,1-4.25,1.05c-3,0-4.9-1.08-5.73-3.22l3.17-.64a2.48,2.48,0,0,0,2.64,1.77A3,3,0,0,0,60,76.24a1,1,0,0,0,.59-.92,1,1,0,0,0-.42-.76,5.43,5.43,0,0,0-1.88-.72A21.32,21.32,0,0,1,55.49,73,3.93,3.93,0,0,1,54,71.86a2.54,2.54,0,0,1-.6-1.65,3,3,0,0,1,1.43-2.59,6.45,6.45,0,0,1,3.78-1q4.31,0,5.37,2.73Zm.66.5H68l1.64,5.29,1.58-5.29h2.94L70.5,78.63a9.77,9.77,0,0,1-.91,1.77,2.66,2.66,0,0,1-1.13.84,4.73,4.73,0,0,1-1.9.33,8,8,0,0,1-1.45-.14v-1.9c.33,0,.65,0,1,0a2.85,2.85,0,0,0,1.36-.23,2.21,2.21,0,0,0,.7-1L64.6,69.84Zm18.49,2.08-2.43.52a1.77,1.77,0,0,0-1.79-1.18c-.7,0-1.06.25-1.06.76a.72.72,0,0,0,.4.65,8.37,8.37,0,0,0,1.64.53,17.69,17.69,0,0,1,2.06.61,2.84,2.84,0,0,1,1.1.81,1.84,1.84,0,0,1,.44,1.23,2.35,2.35,0,0,1-1.22,2,6,6,0,0,1-3.4.82q-4.12,0-4.57-2.58L77,75.79a1.72,1.72,0,0,0,1.92,1.29c.9,0,1.35-.27,1.35-.8a.69.69,0,0,0-.4-.65,6.93,6.93,0,0,0-1.54-.49A7,7,0,0,1,75.41,74a2,2,0,0,1-.79-1.57,2.28,2.28,0,0,1,1.24-2,5.91,5.91,0,0,1,3.1-.75q3.24,0,4.13,2.26Zm2.67-4.74,3.31-.08v2.74h2.24v1.9H89.07v3.18a8.6,8.6,0,0,0,.05,1.15.67.67,0,0,0,.37.43,2.12,2.12,0,0,0,1,.18l1,0V78.5a13.28,13.28,0,0,1-2.07.18A5.35,5.35,0,0,1,87,78.26,2,2,0,0,1,86,77.2a6.17,6.17,0,0,1-.23-2V71.74H84.41v-1.9h1.35V67.18Zm16.46,7.39h-6.4v.48a2,2,0,0,0,.45,1.56,1.72,1.72,0,0,0,1.17.39,1.55,1.55,0,0,0,1.75-1.48l3,.14q-.81,3-4.84,3a5.36,5.36,0,0,1-3.78-1.2,4.12,4.12,0,0,1-1.29-3.19,4.3,4.3,0,0,1,1.37-3.44,5.41,5.41,0,0,1,3.67-1.18,5.62,5.62,0,0,1,3.48,1c.93.7,1.39,2,1.39,3.85ZM99,73.17a2.27,2.27,0,0,0,0-.24c0-1.11-.53-1.67-1.59-1.67s-1.58.64-1.59,1.91Zm5.21-3.33h3.22V71a3.25,3.25,0,0,1,3-1.35c1.45,0,2.33.45,2.63,1.35a3.19,3.19,0,0,1,3-1.35,4.82,4.82,0,0,1,1.91.31,1.88,1.88,0,0,1,1,.84,5,5,0,0,1,.28,2V78.5h-3.4V73.09a2.61,2.61,0,0,0-.19-1.26c-.13-.2-.41-.29-.86-.29s-.87.12-1,.38a3.21,3.21,0,0,0-.25,1.53v5H110V73a2.37,2.37,0,0,0-.19-1.2c-.13-.18-.41-.27-.85-.27a1.25,1.25,0,0,0-1.09.39,2.86,2.86,0,0,0-.28,1.52v5h-3.4V69.84ZM122,67.18l3.3-.08v2.74h2.25v1.9H125.3v3.18a6.72,6.72,0,0,0,.06,1.15.65.65,0,0,0,.36.43,2.18,2.18,0,0,0,1,.18l1,0V78.5a13.38,13.38,0,0,1-2.07.18,5.37,5.37,0,0,1-2.38-.42,2,2,0,0,1-1-1.06,6.52,6.52,0,0,1-.22-2V71.74h-1.36v-1.9H122V67.18Zm16.46,7.39h-6.4v.48a2,2,0,0,0,.45,1.56,1.69,1.69,0,0,0,1.17.39,1.55,1.55,0,0,0,1.75-1.48l3,.14q-.81,3-4.84,3a5.4,5.4,0,0,1-3.79-1.2,4.12,4.12,0,0,1-1.29-3.19,4.33,4.33,0,0,1,1.37-3.44,5.44,5.44,0,0,1,3.68-1.18,5.64,5.64,0,0,1,3.48,1c.92.7,1.39,2,1.39,3.85Zm-3.21-1.4a2.27,2.27,0,0,0,0-.24c0-1.11-.53-1.67-1.6-1.67s-1.57.64-1.58,1.91ZM149.56,73l-3.16.08a2.4,2.4,0,0,0-.37-1.2,1.11,1.11,0,0,0-1-.41c-1.15,0-1.72.85-1.72,2.55a3.76,3.76,0,0,0,.42,2.08,1.41,1.41,0,0,0,1.23.59c.86,0,1.33-.53,1.41-1.6l3.16.14q-.42,3.42-4.78,3.42a5.24,5.24,0,0,1-3.61-1.13,5.06,5.06,0,0,1,.06-6.73,5.39,5.39,0,0,1,3.68-1.15q4.28,0,4.65,3.36Zm1.85-6.24h3.41v4a3.68,3.68,0,0,1,3-1.09,4,4,0,0,1,2,.41,1.89,1.89,0,0,1,.91,1,7,7,0,0,1,.19,1.83V78.5h-3.41V72.94a2,2,0,0,0-.22-1.13,1.2,1.2,0,0,0-.93-.27,2,2,0,0,0-1.1.26c-.27.18-.4.58-.4,1.21V78.5h-3.41V66.79Zm11.8,3h3.22V71a3.34,3.34,0,0,1,3.06-1.35,4.38,4.38,0,0,1,2,.38,1.83,1.83,0,0,1,1,1,5.45,5.45,0,0,1,.22,1.8V78.5h-3.41V72.82c0-.58-.1-.94-.31-1.08a1.59,1.59,0,0,0-.85-.2,1.47,1.47,0,0,0-1.21.39,2.78,2.78,0,0,0-.28,1.49V78.5h-3.41V69.84Zm15.22-.71H175v-2.4h3.46v2.4Zm-3.43.71h3.4V78.5H175V69.84Zm5.91-3h3.4v6.39l3.43-3.34h3.09l-3.08,2.9,3.39,5.76h-3.67l-1.91-4-1.25,1.21V78.5h-3.4V66.79ZM203,72.26h5.72V78.5h-1.53l-.47-1.34a5,5,0,0,1-4,1.52,6.2,6.2,0,0,1-4.46-1.58,5.54,5.54,0,0,1-1.65-4.23A5.76,5.76,0,0,1,203,66.61q5.07,0,5.68,4l-3.26.37c-.23-1.53-1-2.29-2.34-2.29a2.48,2.48,0,0,0-2,.84,5.19,5.19,0,0,0-.73,3.22,4.66,4.66,0,0,0,.72,3,2.56,2.56,0,0,0,2.09.86c1.47,0,2.21-.78,2.22-2.32H203v-2Zm8.25-2.42h3.22V71a3.25,3.25,0,0,1,3-1.35c1.45,0,2.33.45,2.63,1.35a3.19,3.19,0,0,1,3-1.35,4.79,4.79,0,0,1,1.91.31,1.88,1.88,0,0,1,1,.84,4.86,4.86,0,0,1,.28,2V78.5h-3.4V73.09a2.61,2.61,0,0,0-.19-1.26c-.13-.2-.41-.29-.85-.29s-.88.12-1,.38a3.21,3.21,0,0,0-.25,1.53v5h-3.4V73a2.37,2.37,0,0,0-.19-1.2c-.13-.18-.41-.27-.85-.27a1.25,1.25,0,0,0-1.09.39,3,3,0,0,0-.28,1.52v5h-3.4V69.84Zm17.27-3h3.34v3.86a3.57,3.57,0,0,1,2.54-.93,3.91,3.91,0,0,1,2.82,1.08,4.4,4.4,0,0,1,1.12,3.32,4.8,4.8,0,0,1-1.1,3.35A4.13,4.13,0,0,1,234,78.68a3,3,0,0,1-2.85-1.32,4.68,4.68,0,0,0-.64,1.14h-2V66.79Zm3.34,8.11a3.06,3.06,0,0,0,.32,1.65,1.26,1.26,0,0,0,1.11.45,1.23,1.23,0,0,0,1.21-.64,5.21,5.21,0,0,0,.32-2.18A5.52,5.52,0,0,0,234.5,72a1.16,1.16,0,0,0-1.16-.69c-1,0-1.49.53-1.49,1.59v2Zm8.76-8.11h3.63v4.73h4V66.79h3.62V78.5H248.2V73.71h-4V78.5h-3.63V66.79Z"/></g></g></g></svg>